<svg width="20" height="20" viewBox="0 0 20 20" fill="none" xmlns="http://www.w3.org/2000/svg">
<path d="M18.3332 14.5833H1.6665" stroke="#3B71FE" stroke-width="1.5" stroke-linecap="round" stroke-linejoin="round"/>
<path d="M18.3332 17.5V13.3333C18.3332 11.762 18.3332 10.9763 17.845 10.4882C17.3569 10 16.5712 10 14.9998 10H4.99984C3.42849 10 2.64281 10 2.15466 10.4882C1.6665 10.9763 1.6665 11.762 1.6665 13.3333V17.5" stroke="#3B71FE" stroke-width="1.5" stroke-linecap="round" stroke-linejoin="round"/>
<path d="M9.16667 10V8.51113C9.16667 8.19393 9.11899 8.08784 8.87479 7.96281C8.36621 7.70243 7.74888 7.5 7.08333 7.5C6.41779 7.5 5.80046 7.70243 5.29188 7.96281C5.04768 8.08784 5 8.19393 5 8.51113L5 10" stroke="#3B71FE" stroke-width="1.5" stroke-linecap="round"/>
<path d="M14.9997 10V8.51113C14.9997 8.19393 14.952 8.08784 14.7078 7.96281C14.1992 7.70243 13.5819 7.5 12.9163 7.5C12.2508 7.5 11.6335 7.70243 11.1249 7.96281C10.8807 8.08784 10.833 8.19393 10.833 8.51113L10.833 10" stroke="#3B71FE" stroke-width="1.5" stroke-linecap="round"/>
<path d="M17.5 10V6.13381C17.5 5.55744 17.5 5.26925 17.3399 4.99711C17.1798 4.72496 16.9516 4.58409 16.4953 4.30236C14.6557 3.16648 12.4161 2.5 10 2.5C7.58389 2.5 5.34429 3.16648 3.50465 4.30236C3.04837 4.58409 2.82022 4.72496 2.66011 4.99711C2.5 5.26925 2.5 5.55744 2.5 6.13381V10" stroke="#3B71FE" stroke-width="1.5" stroke-linecap="round"/>
</svg>
