<svg width="20" height="20" viewBox="0 0 20 20" fill="none" xmlns="http://www.w3.org/2000/svg">
<path d="M18.3337 17.5H17.5003C16.2908 17.5 15.232 16.7843 15.0003 15.8333C14.7687 16.7843 13.7098 17.5 12.5003 17.5C11.2908 17.5 10.232 16.7843 10.0003 15.8333C9.76869 16.7843 8.7098 17.5 7.50033 17.5C6.29085 17.5 5.23196 16.7843 5.00033 15.8333C4.76869 16.7843 3.7098 17.5 2.50033 17.5H1.66699" stroke="#3B71FE" stroke-width="1.5" stroke-linecap="round" stroke-linejoin="round"/>
<path d="M15.8335 2.5L15.6127 2.57359C14.5127 2.94026 13.9627 3.1236 13.6481 3.56008C13.3335 3.99656 13.3335 4.57633 13.3335 5.73586L13.3335 14.1667" stroke="#3B71FE" stroke-width="1.5" stroke-linecap="round" stroke-linejoin="round"/>
<path d="M9.16699 2.5L8.94623 2.57359C7.8462 2.94026 7.29618 3.1236 6.98159 3.56008C6.66699 3.99656 6.66699 4.57633 6.66699 5.73586L6.66699 14.1667" stroke="#3B71FE" stroke-width="1.5" stroke-linecap="round" stroke-linejoin="round"/>
<path d="M6.66699 5.83333H13.3337M6.66699 9.16666H13.3337M6.66699 12.5H13.3337" stroke="#3B71FE" stroke-width="1.5" stroke-linecap="round" stroke-linejoin="round"/>
</svg>
