<svg width="20" height="20" viewBox="0 0 20 20" fill="none" xmlns="http://www.w3.org/2000/svg">
<path d="M5.41699 4.16669L12.5003 4.16669C14.0717 4.16669 14.8573 4.16669 15.3455 4.65484C15.8337 5.143 15.8337 5.92867 15.8337 7.50002V10C15.8337 11.5714 15.8337 12.357 15.3455 12.8452C14.8573 13.3334 14.0717 13.3334 12.5003 13.3334L10.0003 13.3334C8.42898 13.3334 7.6433 13.3334 7.15515 12.8452C6.66699 12.357 6.66699 11.5714 6.66699 10L6.66699 6.66669M5.41699 4.16669C4.72664 4.16669 4.16699 4.72633 4.16699 5.41669V6.66669L6.66699 6.66669M5.41699 4.16669C6.10735 4.16669 6.66699 4.72633 6.66699 5.41669L6.66699 6.66669M14.167 13.3334C14.167 14.9047 14.167 15.6904 13.6788 16.1785C13.1907 16.6667 12.405 16.6667 10.8337 16.6667H7.50033C5.92898 16.6667 5.1433 16.6667 4.65515 16.1785C4.16699 15.6904 4.16699 14.9047 4.16699 13.3334L4.16699 9.16669" stroke="#3276FF" stroke-width="1.5" stroke-linecap="round" stroke-linejoin="round"/>
<path d="M18.3337 3.33334V4.16668C18.3337 4.94325 18.3337 5.33153 18.2068 5.63782C18.0376 6.0462 17.7132 6.37065 17.3048 6.53981C16.9985 6.66668 16.6102 6.66668 15.8337 6.66668M1.66699 3.33334L1.66699 4.16668C1.66699 4.94325 1.66699 5.33153 1.79386 5.63782C1.96302 6.0462 2.28747 6.37065 2.69585 6.53981C3.00214 6.66668 3.39042 6.66668 4.16699 6.66668" stroke="#3276FF" stroke-width="1.5" stroke-linecap="round" stroke-linejoin="round"/>
</svg>
