<svg width="18" height="20" viewBox="0 0 18 20" fill="none" xmlns="http://www.w3.org/2000/svg">
<path d="M1.10697 12.3074C0.929755 13.4691 1.72203 14.2754 2.69208 14.6772C6.41104 16.2178 11.5864 16.2178 15.3053 14.6772C16.2754 14.2754 17.0676 13.4691 16.8904 12.3074C16.7815 11.5934 16.243 10.999 15.844 10.4184C15.3214 9.64874 15.2695 8.8092 15.2694 7.91602C15.2694 4.46424 12.4619 1.66602 8.9987 1.66602C5.53547 1.66602 2.72797 4.46424 2.72797 7.91602C2.72789 8.8092 2.67597 9.64874 2.15337 10.4184C1.7544 10.999 1.21587 11.5934 1.10697 12.3074Z" stroke="#232E40" stroke-width="1.5" stroke-linecap="round" stroke-linejoin="round"/>
<path d="M5.66406 15.832C6.04614 17.2697 7.39367 18.332 8.9974 18.332C10.6011 18.332 11.9487 17.2697 12.3307 15.832" stroke="#232E40" stroke-width="1.5" stroke-linecap="round" stroke-linejoin="round"/>
</svg>
