<svg width="20" height="20" viewBox="0 0 20 20" fill="none" xmlns="http://www.w3.org/2000/svg">
<path d="M9.1665 7.5H16.6621C17.0754 7.5 17.2821 7.5 17.4034 7.63356C17.5247 7.76712 17.5089 7.97717 17.4772 8.39725L16.9597 15.2557C16.8495 16.7157 16.7944 17.4457 16.3243 17.8895C15.8542 18.3333 15.1359 18.3333 13.6995 18.3333H9.94596C8.5095 18.3333 7.79127 18.3333 7.32116 17.8895C6.62164 17.2292 6.73375 15.8911 6.6665 15" stroke="#3B71FE" stroke-width="1.5" stroke-linecap="round" stroke-linejoin="round"/>
<path d="M9.16667 7.42423V11.9697C9.16667 13.3982 9.16667 14.1124 8.67851 14.5562C8.19036 15 7.40468 15 5.83333 15C4.26198 15 3.47631 15 2.98816 14.5562C2.5 14.1124 2.5 13.3982 2.5 11.9697V11.2121C2.5 9.06936 2.5 7.99799 3.23223 7.33232C3.96447 6.66666 5.14298 6.66666 7.5 6.66666H8.33333C8.72617 6.66666 8.92259 6.66666 9.04463 6.7776C9.16667 6.88855 9.16667 7.06711 9.16667 7.42423Z" stroke="#3B71FE" stroke-width="1.5" stroke-linecap="round" stroke-linejoin="round"/>
<path d="M15.8333 7.49999C15.8333 4.27833 13.9584 1.66666 11.6455 1.66666C9.53569 1.66666 7.7903 3.83974 7.5 6.66666" stroke="#3B71FE" stroke-width="1.5" stroke-linecap="round" stroke-linejoin="round"/>
<path d="M2.5 11.6667H9.16667" stroke="#3B71FE" stroke-width="1.5" stroke-linecap="round" stroke-linejoin="round"/>
<path d="M9.1665 10.8333H16.6665" stroke="#3B71FE" stroke-width="1.5" stroke-linecap="round" stroke-linejoin="round"/>
</svg>
