<svg width="20" height="20" viewBox="0 0 20 20" fill="none" xmlns="http://www.w3.org/2000/svg">
<path d="M1.6665 14.1667L18.3332 14.1667" stroke="#3276FF" stroke-width="1.5" stroke-linecap="round"/>
<path d="M10 5.83333C10 5.83333 11.25 4.97199 11.25 3.90946C11.25 2.03018 8.75 2.03018 8.75 3.90946C8.75 4.97199 10 5.83333 10 5.83333Z" stroke="#3276FF" stroke-width="1.5" stroke-linejoin="round"/>
<path d="M2.5 14.1667L3.01772 16.2375C3.20321 16.9795 3.86985 17.5 4.63463 17.5L15.3654 17.5C16.1302 17.5 16.7968 16.9795 16.9823 16.2375L17.5 14.1667" stroke="#3276FF" stroke-width="1.5" stroke-linecap="round"/>
<path d="M17.0832 12.0833C16.6679 8.56403 13.655 5.83334 9.99984 5.83334C6.34472 5.83334 3.33179 8.56403 2.9165 12.0833" stroke="#3276FF" stroke-width="1.5" stroke-linecap="round"/>
</svg>
