<svg width="20" height="20" viewBox="0 0 20 20" fill="none" xmlns="http://www.w3.org/2000/svg">
<g clip-path="url(#clip0_4303_858)">
<path d="M6.83765 12.7985L3.76411 9.2343C2.18713 7.40559 1.39863 6.49123 1.74845 5.74562C2.09826 5 3.31573 5 5.75066 5L9.24901 5C11.6839 5 12.9014 5 13.2512 5.74562C13.601 6.49123 12.8125 7.40559 11.2356 9.2343L8.16202 12.7985C7.85453 13.155 7.70079 13.3333 7.49984 13.3333C7.29889 13.3333 7.14514 13.155 6.83765 12.7985Z" stroke="#3276FF" stroke-width="1.5" stroke-linecap="round"/>
<path d="M7.08317 4.99999L6.76549 3.09388C6.70459 2.72851 6.44672 2.42673 6.09532 2.3096L4.1665 1.66666" stroke="#3276FF" stroke-width="1.5" stroke-linecap="round"/>
<path d="M7.5 13.3333L7.5 18.3333M6.25 18.3333H8.75" stroke="#3276FF" stroke-width="1.5" stroke-linecap="round"/>
<path d="M13.2168 7.36111C13.7535 7.95781 14.5336 8.33333 15.4018 8.33333C17.0209 8.33333 18.3333 7.0275 18.3333 5.41667C18.3333 3.80584 17.0209 2.5 15.4018 2.5C13.925 2.5 12.7032 3.58654 12.5 5" stroke="#3276FF" stroke-width="1.5" stroke-linecap="round"/>
</g>
<defs>
<clipPath id="clip0_4303_858">
<rect width="20" height="20" fill="white"/>
</clipPath>
</defs>
</svg>
