<svg width="20" height="20" viewBox="0 0 20 20" fill="none" xmlns="http://www.w3.org/2000/svg">
<g clip-path="url(#clip0_4303_354)">
<path d="M2.5 3.33334V16.6667C2.5 17.4523 2.5 17.8452 2.74408 18.0893C2.98816 18.3333 3.38099 18.3333 4.16667 18.3333H15.8333C16.619 18.3333 17.0118 18.3333 17.2559 18.0893C17.5 17.8452 17.5 17.4523 17.5 16.6667V3.33334" stroke="#3276FF" stroke-width="1.5" stroke-linecap="round" stroke-linejoin="round"/>
<path d="M8.75 6.66667V7.91667M8.75 9.16667V7.91667M11.25 6.66667V7.91667M11.25 9.16667V7.91667M8.75 7.91667H11.25" stroke="#3276FF" stroke-width="1.5" stroke-linecap="round" stroke-linejoin="round"/>
<path d="M11.6663 18.3333L11.6663 14.9999C11.6663 14.0795 10.9201 13.3333 9.99967 13.3333C9.0792 13.3333 8.33301 14.0795 8.33301 14.9999V18.3333" stroke="#3276FF" stroke-width="1.5" stroke-linecap="round" stroke-linejoin="round"/>
<path d="M1.6665 3.33334H6.6665C7.19976 2.35606 8.49127 1.66667 9.99984 1.66667C11.5084 1.66667 12.7999 2.35606 13.3332 3.33334H18.3332" stroke="#3276FF" stroke-width="1.5" stroke-linecap="round" stroke-linejoin="round"/>
<path d="M5 6.66667H5.83333M5 10H5.83333M5 13.3333H5.83333" stroke="#3276FF" stroke-width="1.5" stroke-linecap="round" stroke-linejoin="round"/>
<path d="M14.1665 6.66667H14.9998M14.1665 10H14.9998M14.1665 13.3333H14.9998" stroke="#3276FF" stroke-width="1.5" stroke-linecap="round" stroke-linejoin="round"/>
</g>
<defs>
<clipPath id="clip0_4303_354">
<rect width="20" height="20" fill="white"/>
</clipPath>
</defs>
</svg>
