<svg width="24" height="20" viewBox="0 0 24 20" fill="none" xmlns="http://www.w3.org/2000/svg">
<path d="M2 8.33332C2 5.19063 2 3.61928 3.17157 2.64297C4.34315 1.66666 6.22876 1.66666 10 1.66666H14C17.7712 1.66666 19.6569 1.66666 20.8284 2.64297C22 3.61928 22 5.19063 22 8.33332C22 11.476 22 13.0474 20.8284 14.0237C19.6569 15 17.7712 15 14 15H10C6.22876 15 4.34315 15 3.17157 14.0237C2 13.0474 2 11.476 2 8.33332Z" stroke="#3B71FE" stroke-width="1.5" stroke-linecap="round"/>
<path d="M16 18.3333C14.8233 17.8033 13.4571 17.5 12 17.5C10.5429 17.5 9.17669 17.8033 8 18.3333" stroke="#3B71FE" stroke-width="1.5" stroke-linecap="round"/>
</svg>
