<svg width="24" height="24" viewBox="0 0 24 24" fill="none" xmlns="http://www.w3.org/2000/svg">
<g clip-path="url(#clip0_4303_478)">
<path d="M12 14.4609C13.3591 14.4609 14.4609 13.3591 14.4609 12C14.4609 10.6409 13.3591 9.53906 12 9.53906C10.6409 9.53906 9.53906 10.6409 9.53906 12C9.53906 13.3591 10.6409 14.4609 12 14.4609Z" fill="#232E40"/>
<path d="M12 0.28125C5.52792 0.28125 0.28125 5.52792 0.28125 12C0.28125 18.4721 5.52792 23.7188 12 23.7188C18.4721 23.7188 23.7188 18.4721 23.7188 12C23.7188 5.52792 18.4721 0.28125 12 0.28125ZM19.2402 14.9784C19.184 16.0926 18.8709 17.1912 18.059 17.9945C17.2392 18.8055 16.1353 19.1076 15.0105 19.1633H8.98959C7.86459 19.1076 6.76087 18.8056 5.94108 17.9945C5.12911 17.1912 4.81608 16.0926 4.75983 14.9784V9.02156C4.81608 7.90744 5.12916 6.80878 5.94108 6.00544C6.76087 5.1945 7.86473 4.89234 8.98959 4.8367H15.0104C16.1354 4.89234 17.2391 5.19436 18.0589 6.00544C18.8709 6.80878 19.1839 7.90744 19.2402 9.02156L19.2402 14.9784Z" fill="#232E40"/>
<path d="M14.9345 6.19398C13.468 6.15376 10.5326 6.15376 9.06612 6.19398C8.30295 6.21494 7.43777 6.40492 6.89402 6.9857C6.32899 7.5894 6.11548 8.31878 6.09382 9.13473C6.05576 10.5669 6.09382 14.8653 6.09382 14.8653C6.11862 15.6812 6.32899 16.4106 6.89402 17.0143C7.43777 17.5953 8.30295 17.7851 9.06612 17.806C10.5326 17.8463 13.468 17.8463 14.9345 17.806C15.6977 17.7851 16.5628 17.5951 17.1066 17.0143C17.6716 16.4106 17.8851 15.6812 17.9068 14.8653V9.13473C17.8851 8.31878 17.6716 7.5894 17.1066 6.9857C16.5626 6.40473 15.6975 6.21494 14.9345 6.19398ZM12.0001 15.8145C11.2457 15.8145 10.5082 15.5908 9.88092 15.1716C9.25364 14.7525 8.76473 14.1567 8.47602 13.4597C8.18732 12.7627 8.11178 11.9958 8.25896 11.2559C8.40614 10.5159 8.76943 9.83625 9.30289 9.30279C9.83635 8.76933 10.516 8.40604 11.256 8.25885C11.9959 8.11167 12.7628 8.18721 13.4598 8.47592C14.1568 8.76463 14.7526 9.25353 15.1717 9.88082C15.5909 10.5081 15.8146 11.2456 15.8146 12C15.8146 13.0117 15.4127 13.9819 14.6973 14.6972C13.982 15.4126 13.0118 15.8145 12.0001 15.8145ZM15.8308 8.97292C15.6799 8.97288 15.5324 8.92811 15.407 8.84426C15.2816 8.76041 15.1838 8.64125 15.1261 8.50185C15.0684 8.36244 15.0533 8.20906 15.0828 8.06108C15.1122 7.91311 15.1849 7.77719 15.2916 7.67052C15.3983 7.56384 15.5342 7.4912 15.6822 7.46178C15.8302 7.43236 15.9836 7.44748 16.123 7.50523C16.2624 7.56297 16.3815 7.66076 16.4653 7.78621C16.5491 7.91166 16.5939 8.05915 16.5939 8.21003C16.5939 8.31023 16.5741 8.40945 16.5358 8.50202C16.4974 8.59459 16.4412 8.6787 16.3704 8.74954C16.2995 8.82038 16.2154 8.87657 16.1228 8.9149C16.0302 8.95323 15.931 8.97294 15.8308 8.97292Z" fill="#232E40"/>
</g>
<defs>
<clipPath id="clip0_4303_478">
<rect width="24" height="24" fill="white"/>
</clipPath>
</defs>
</svg>
